<?xml version="1.0" encoding="UTF-8"?>
<svg width="54px" height="60px" viewBox="0 0 54 60" version="1.1" xmlns="http://www.w3.org/2000/svg" xmlns:xlink="http://www.w3.org/1999/xlink">
    <title>TA Logo</title>
    <defs>
        <linearGradient x1="50%" y1="33.8271265%" x2="50%" y2="100%" id="linearGradient-1">
            <stop stop-color="#F980DB" offset="0%"></stop>
            <stop stop-color="#FFE9FD" offset="100%"></stop>
        </linearGradient>
    </defs>
    <g id="Page-1" stroke="none" stroke-width="1" fill="none" fill-rule="evenodd">
        <g id="Artboard" transform="translate(-4433.000000, -509.000000)">
            <g id="Logo" transform="translate(4433.000000, 509.000000)">
                <path d="M27,54 C40.7324348,54 52.0703949,43.748035 53.7777799,30.4802054 C53.9243992,29.3408493 54,28.1792534 54,27 C54,12.0883118 41.9116882,0 27,0 C12.0883118,0 0,12.0883118 0,27 C0,41.9116882 12.0883118,54 27,54 Z" id="Oval-Copy-2" fill="#C71F9D"></path>
                <path d="M25.312,59.93 C27.4062222,59.93 29.3022222,59.62 31,59 C26.3333333,59 21.9366667,56.7473333 17.81,52.242 C16.4556108,50.7633308 15.8363333,48.5633333 15.237,46.29 C14.6376667,44.0166667 14.338,41.5366667 14.338,38.85 C14.338,35.7913333 14.7203333,33.053 15.485,30.635 C16.2496667,28.217 17.2416667,26.1813333 18.461,24.528 C19.6803333,22.8746667 21.065,21.6036667 22.615,20.715 C24.165,19.8263333 25.7253333,19.382 27.296,19.382 C28.3293333,19.382 29.652,19.3923333 31.264,19.413 C32.876,19.4336667 34.457,19.4853333 36.007,19.568 C37.557,19.6506667 38.921,19.7953333 40.099,20.002 C41.277,20.2086667 41.9693333,20.5186667 42.176,20.932 C42.2173333,21.0146667 42.238,21.1593333 42.238,21.366 C42.238,21.5726667 42.2173333,21.8206667 42.176,22.11 C42.1346667,22.3993333 42.114,22.6473333 42.114,22.854 C42.114,23.102 42.3,23.226 42.672,23.226 C42.796,23.226 42.92,23.2156667 43.044,23.195 C43.168,23.1743333 43.2713333,23.164 43.354,23.164 C43.354,22.9573333 43.4366667,22.544 43.602,21.924 C43.7673333,21.304 43.974,20.591 44.222,19.785 C44.47,18.979 44.7386667,18.1316667 45.028,17.243 C45.3173333,16.3543333 45.5963333,15.5276667 45.865,14.763 C46.1336667,13.9983333 46.361,13.3473333 46.547,12.81 C46.733,12.2726667 46.8673333,11.9626667 46.95,11.88 C46.95,11.6733333 46.7433333,11.57 46.33,11.57 C45.9993333,11.57 45.7926667,11.6733333 45.71,11.88 C45.5446667,12.2933333 45.2346667,12.7066667 44.78,13.12 C44.3253333,13.5333333 43.4263333,13.9053333 42.083,14.236 C40.7396667,14.5666667 38.8383333,14.8353333 36.379,15.042 C33.9196667,15.2486667 30.582,15.352 26.366,15.352 L18.616,15.352 C16.26,15.352 14.183,15.3003333 12.385,15.197 C10.587,15.0936667 9.08866667,14.8766667 7.89,14.546 C7.47666667,14.422 7.27,14.1533333 7.27,13.74 C7.27,13.4506667 7.332,13.058 7.456,12.562 C7.29066667,12.4793333 7.12533333,12.438 6.96,12.438 C6.75333333,12.438 6.56733333,12.4793333 6.402,12.562 C6.278,12.8513333 6.061,13.492 5.751,14.484 C5.441,15.476 5.069,16.561 4.635,17.739 C4.201,18.917 3.767,20.0433333 3.333,21.118 C2.899,22.1926667 2.496,22.978 2.124,23.474 C2.248,23.846 2.41333333,24.0836667 2.62,24.187 C2.82666667,24.2903333 3.09533333,24.342 3.426,24.342 C3.63266667,23.7633333 3.88066667,23.2053333 4.17,22.668 C4.45933333,22.1306667 4.83133333,21.6966667 5.286,21.366 C5.69933333,21.0353333 6.464,20.7563333 7.58,20.529 C8.696,20.3016667 9.97733333,20.1156667 11.424,19.971 C12.8706667,19.8263333 14.3896667,19.7126667 15.981,19.63 C17.5723333,19.5473333 19.0706667,19.4853333 20.476,19.444 C20.0213333,19.568 19.3186667,19.8986667 18.368,20.436 C17.4173333,20.9733333 16.3736667,21.707 15.237,22.637 C14.1003333,23.567 12.9326667,24.6726667 11.734,25.954 C10.5353333,27.2353333 9.44,28.6613333 8.448,30.232 C7.456,31.8026667 6.65,33.4973333 6.03,35.316 C5.41,37.1346667 5.1,39.0773333 5.1,41.144 C5.1,43.872 5.55466667,46.383 6.464,48.677 C7.37333333,50.971 8.68566667,52.955 10.401,54.629 C12.1163333,56.303 14.2243333,57.605 16.725,58.535 C19.2256667,59.465 22.088,59.93 25.312,59.93 Z" id="T-Copy" fill="url(#linearGradient-1)" fill-rule="nonzero"></path>
                <path d="M37.9230039,49.3290001 C39.0510041,49.3290001 40.1790043,49.235 41.2600045,49 L41.3305045,48.906 C38.9100041,48.9765 39.7560042,42.795999 40.4610043,38.7539983 L44,20 C43.2244999,21.4100002 41.1515002,24 40,24 C37.6029996,24 34.7600006,23 31,23 C23.1039987,23 15.8800003,33.1609974 15.8800003,40.6339986 C15.8800003,44.9579993 17.6190006,49.3290001 22.5540014,49.3290001 C26.7840021,49.3290001 30.4030027,46.1799995 33.3640032,34.4769976 L33.4580032,34.5004976 L31.8130029,41.7619988 C30.4735027,47.6604998 33.9280033,49.3290001 37.9230039,49.3290001 Z M26.243502,47.0494997 C25.0215018,47.0494997 24.3870017,45.0049993 24.3870017,43.077999 C24.3870017,35.5344978 27.5595022,24.2779959 32.189003,24.2779959 C34.6800034,24.2779959 34.3980033,27.4974965 33.9515033,29.9414969 L33.4345032,32.8084973 C32.212503,39.7174985 29.1105025,47.0494997 26.243502,47.0494997 Z" id="a-copy" fill="#F980DB" fill-rule="nonzero"></path>
            </g>
        </g>
    </g>
</svg>